<svg width="19" height="21" viewBox="0 0 19 21" fill="none" xmlns="http://www.w3.org/2000/svg">
<path d="M16.875 1.5H15V1.125C15 0.826631 14.8815 0.540483 14.6705 0.329505C14.4595 0.118526 14.1734 0 13.875 0C13.5766 0 13.2905 0.118526 13.0795 0.329505C12.8685 0.540483 12.75 0.826631 12.75 1.125V1.5H6V1.125C6 0.826631 5.88147 0.540483 5.6705 0.329505C5.45952 0.118526 5.17337 0 4.875 0C4.57663 0 4.29048 0.118526 4.0795 0.329505C3.86853 0.540483 3.75 0.826631 3.75 1.125V1.5H1.875C1.37772 1.5 0.900805 1.69754 0.549175 2.04917C0.197544 2.40081 0 2.87772 0 3.375V18.375C0 18.8723 0.197544 19.3492 0.549175 19.7008C0.900805 20.0525 1.37772 20.25 1.875 20.25H16.875C17.3723 20.25 17.8492 20.0525 18.2008 19.7008C18.5525 19.3492 18.75 18.8723 18.75 18.375V3.375C18.75 2.87772 18.5525 2.40081 18.2008 2.04917C17.8492 1.69754 17.3723 1.5 16.875 1.5ZM3.75 3.75C3.75 4.04837 3.86853 4.33452 4.0795 4.5455C4.29048 4.75647 4.57663 4.875 4.875 4.875C5.17337 4.875 5.45952 4.75647 5.6705 4.5455C5.88147 4.33452 6 4.04837 6 3.75H12.75C12.75 4.04837 12.8685 4.33452 13.0795 4.5455C13.2905 4.75647 13.5766 4.875 13.875 4.875C14.1734 4.875 14.4595 4.75647 14.6705 4.5455C14.8815 4.33452 15 4.04837 15 3.75H16.5V6H2.25V3.75H3.75ZM2.25 18V8.25H16.5V18H2.25ZM7.875 10.5V15.75C7.875 16.0484 7.75647 16.3345 7.5455 16.5455C7.33452 16.7565 7.04837 16.875 6.75 16.875C6.45163 16.875 6.16548 16.7565 5.9545 16.5455C5.74353 16.3345 5.625 16.0484 5.625 15.75V12.3113C5.35732 12.3991 5.06641 12.3833 4.8098 12.267C4.55319 12.1507 4.34956 11.9424 4.23916 11.6832C4.12877 11.424 4.11964 11.1328 4.2136 10.8672C4.30755 10.6016 4.49774 10.3809 4.74656 10.2487L6.24656 9.49875C6.41772 9.4131 6.60789 9.37254 6.7991 9.38089C6.9903 9.38924 7.17622 9.44623 7.33925 9.54647C7.50229 9.64671 7.63705 9.78689 7.7308 9.95375C7.82455 10.1206 7.87418 10.3086 7.875 10.5ZM13.6397 13.6763L12.7406 14.625H13.125C13.4234 14.625 13.7095 14.7435 13.9205 14.9545C14.1315 15.1655 14.25 15.4516 14.25 15.75C14.25 16.0484 14.1315 16.3345 13.9205 16.5455C13.7095 16.7565 13.4234 16.875 13.125 16.875H10.125C9.90515 16.8749 9.69014 16.8104 9.50654 16.6895C9.32294 16.5686 9.17881 16.3965 9.09194 16.1945C9.00507 15.9926 8.97928 15.7696 9.01776 15.5531C9.05624 15.3367 9.15729 15.1362 9.30844 14.9766L11.9484 12.1875C11.9818 12.1306 11.9996 12.0659 12 12C12.0002 11.9173 11.9731 11.8368 11.9228 11.7711C11.8725 11.7054 11.8019 11.6582 11.722 11.6368C11.6421 11.6154 11.5573 11.621 11.4809 11.6528C11.4046 11.6846 11.3408 11.7407 11.2997 11.8125C11.1476 12.0651 10.9025 12.2479 10.617 12.3215C10.3316 12.3952 10.0286 12.3539 9.77329 12.2065C9.51799 12.059 9.33076 11.8173 9.25189 11.5332C9.17302 11.2491 9.20881 10.9454 9.35156 10.6875C9.64046 10.187 10.0864 9.79583 10.6203 9.57466C11.1542 9.35348 11.7462 9.31466 12.3044 9.46423C12.8626 9.6138 13.3558 9.94338 13.7076 10.4019C14.0594 10.8604 14.25 11.4221 14.25 12C14.2517 12.5706 14.0659 13.1259 13.7213 13.5806C13.6961 13.6142 13.6689 13.6461 13.6397 13.6763Z" fill="#1E2939"/>
</svg>
