<svg width="21" height="21" viewBox="0 0 21 21" fill="none" xmlns="http://www.w3.org/2000/svg">
<path d="M10.125 0C8.12247 0 6.1649 0.593821 4.49986 1.70637C2.83481 2.81892 1.53706 4.40023 0.770724 6.25033C0.00438702 8.10043 -0.196122 10.1362 0.194554 12.1003C0.585229 14.0643 1.54954 15.8685 2.96555 17.2845C4.38156 18.7005 6.18566 19.6648 8.14971 20.0555C10.1138 20.4461 12.1496 20.2456 13.9997 19.4793C15.8498 18.7129 17.4311 17.4152 18.5436 15.7501C19.6562 14.0851 20.25 12.1275 20.25 10.125C20.247 7.4406 19.1793 4.86699 17.2812 2.96883C15.383 1.07067 12.8094 0.00297771 10.125 0ZM17.9184 9H14.9588C14.81 6.79384 14.1228 4.65776 12.9572 2.77875C14.2609 3.28364 15.4072 4.12564 16.2788 5.21869C17.1505 6.31174 17.7163 7.61663 17.9184 9ZM10.125 17.5312C9.2475 16.5178 7.83188 14.4253 7.55157 11.25H12.7022C12.5621 13.0019 12.0127 14.6964 11.0981 16.1972C10.8104 16.6675 10.485 17.1136 10.125 17.5312ZM7.55157 9C7.69162 7.24811 8.24105 5.55357 9.15563 4.05281C9.44215 3.58265 9.76634 3.1365 10.125 2.71875C11.0025 3.73219 12.4181 5.82469 12.6984 9H7.55157ZM7.29282 2.77875C6.12722 4.65776 5.43998 6.79384 5.29125 9H2.33157C2.53369 7.61663 3.09951 6.31174 3.97118 5.21869C4.84285 4.12564 5.98911 3.28364 7.29282 2.77875ZM2.33157 11.25H5.29125C5.43998 13.4562 6.12722 15.5922 7.29282 17.4713C5.98911 16.9664 4.84285 16.1244 3.97118 15.0313C3.09951 13.9383 2.53369 12.6334 2.33157 11.25ZM12.9572 17.4713C14.1228 15.5922 14.81 13.4562 14.9588 11.25H17.9184C17.7163 12.6334 17.1505 13.9383 16.2788 15.0313C15.4072 16.1244 14.2609 16.9664 12.9572 17.4713Z" fill="#1E2939"/>
</svg>
