<svg width="181" height="44" viewBox="0 0 181 44" fill="none" xmlns="http://www.w3.org/2000/svg">
<path d="M67.9685 6.35131C71.0748 6.35132 71.9153 7.63151 71.9275 7.65046L70.8611 10.6424C70.8611 10.6424 68.6324 8.09209 66.4514 8.09199C65.7641 8.09199 65.456 8.21458 65.4558 8.48413C65.4558 9.04813 66.9963 10.0786 69.1536 11.7215C71.8326 13.7814 72.8051 14.4678 72.8051 16.1353C72.8051 16.7729 72.4255 19.25 67.7551 19.25C64.5021 19.25 63.2645 17.2617 63.2506 17.2392L65.479 14.8848C65.479 14.8848 66.9492 17.6554 70.0312 17.6799C70.3631 17.6799 70.6953 17.5334 70.9798 17.2392C70.9798 16.6506 69.5572 15.8162 67.3999 14.2959C64.1758 11.8928 63.867 10.5934 63.867 9.39189C63.867 8.1903 65.2896 6.35131 67.9685 6.35131Z" fill="#1E2939"/>
<path d="M77.1874 6.69406H80.0083L79.5583 7.92062H77.2344V16.1353C77.2344 18.0971 80.9331 17.5576 81.5732 17.2878C81.5732 17.2878 80.6486 19.25 77.3769 19.25C74.9351 19.25 74.1525 17.1408 74.1762 16.0373C74.1998 14.9617 74.4596 7.96465 74.4612 7.92062H73.3232L77.1874 3.80091V6.69406Z" fill="#1E2939"/>
<path fill-rule="evenodd" clip-rule="evenodd" d="M42.1208 6.35131C44.7997 6.35131 45.8432 8.14138 45.8432 8.14138L40.5327 14.9335C40.5327 14.9335 40.5089 15.0811 40.6275 15.3264C41.5282 17.3123 42.5477 17.4352 43.8514 17.4352C44.5863 17.4352 45.3454 17.3122 46.0566 17.1651C45.8432 17.4348 44.7527 19.2252 42.0976 19.2253C39.0867 19.2253 37.1185 17.165 37.1185 12.6038C37.1186 8.97481 38.636 6.35146 42.1208 6.35131ZM40.3192 8.09199C39.4895 8.04296 39.2763 8.53357 39.2289 9.48992C39.229 11.2288 40.2457 13.9703 40.2483 14.0018C40.2644 13.9769 41.9569 11.3503 42.3581 10.7157C43.5671 8.80308 42.3107 8.2146 40.3192 8.09199Z" fill="#1E2939"/>
<path fill-rule="evenodd" clip-rule="evenodd" d="M28.5558 8.55822C29.03 8.14135 31.211 6.35135 32.6335 6.35131C34.9806 6.35131 36.1425 9.71062 36.1425 12.5552C36.1424 16.258 34.5537 19.1759 31.4954 19.1759C30.4523 19.1759 29.2668 18.8324 27.9155 18.0968C26.9486 18.5359 25.8176 18.9753 25.8058 18.9798V3.97228C25.8058 3.96368 25.8026 2.5965 24.9282 1.76538L28.5558 0.0486432V8.55822ZM30.5947 8.90096C29.7649 8.90097 28.9352 9.09768 28.5558 9.29385V15.0809C28.5559 15.179 28.5797 15.6206 28.6745 16.062C29.054 17.6066 31.0687 18.2931 32.3014 17.3125C32.8941 16.8221 33.2021 15.13 33.2022 13.4136C33.2022 11.7951 32.9414 10.2257 32.491 9.61265C32.0642 9.07319 31.3296 8.90096 30.5947 8.90096Z" fill="#1E2939"/>
<path d="M5.09706 1.74068C4.24359 3.16297 4.24333 4.53654 4.24333 4.53654C4.26704 7.38104 4.31496 10.0784 4.31496 13.0701C4.31496 16.0861 6.63785 17.2877 8.53441 17.2878C10.5021 17.2878 10.7396 14.7132 10.7396 13.1928V4.46246C10.7395 4.11858 10.5736 2.67224 9.93366 1.74068H13.9165C13.1105 3.16297 13.1106 4.53654 13.1106 4.53654V13.1195C13.1104 14.9098 12.1853 19.1272 6.94633 19.1273C2.01524 19.1273 0.948049 15.9883 0.876883 12.6779V4.51185C0.853175 4.31567 0.853476 2.77061 0 1.74068H5.09706Z" fill="#1E2939"/>
<path d="M50.0474 11.2306C50.5453 10.8628 51.8018 9.93129 53.2005 8.55822C53.6035 8.11682 53.2247 7.08641 52.9639 6.69406H57.2549C55.0264 8.53322 54.149 8.82786 52.5131 10.4463C52.5256 10.4768 55.1988 16.9982 57.9661 18.9065C57.9661 18.9065 57.0414 19.1026 55.9982 19.1026C55.2396 19.1026 54.4336 19.0043 53.8646 18.661C52.94 18.0725 50.9013 14.3453 50.0952 12.7513C50.1189 13.8302 50.1183 14.9337 50.1183 16.0126C50.1183 16.1352 50.1426 17.4597 51.0198 18.9065H46.4676C47.2973 17.8521 47.3452 16.4047 47.3452 16.0859V3.89894C47.3452 3.89894 47.3447 2.54974 46.4676 1.71598L50.0474 0V11.2306Z" fill="#1E2939"/>
<path fill-rule="evenodd" clip-rule="evenodd" d="M83.2431 7.38105C84.5944 6.00781 86.5626 5.81154 88.317 6.52268C91.5884 7.84687 91.6357 9.66161 91.6357 10.1275V15.6691C91.6357 15.8898 91.6597 17.0914 92.4894 17.778L89.9051 18.9065C89.8981 18.9049 88.8618 18.6562 88.8618 17.2631V16.8463C88.3876 17.3367 86.7283 19.0532 85.4244 19.0532C83.9784 19.0532 81.7024 16.5526 81.702 14.8115C81.702 14.2966 81.9157 13.8059 82.4371 13.5116C84.4997 12.4326 87.1553 11.0589 88.72 10.2742C88.7673 9.73422 88.601 7.74849 87.8663 7.74849C86.4438 7.74852 85.0688 8.95071 84.405 10.373L83.2431 7.38105ZM88.7431 11.1573C88.3874 11.378 87.6048 11.8689 85.6849 13.0948C85.045 13.5116 84.7841 14.1001 84.7841 14.6641C84.7842 15.4242 85.2346 16.1601 85.8036 16.2828C86.1116 16.3563 86.4436 16.3808 86.7991 16.3808C87.5813 16.3808 88.4113 16.2581 88.8618 16.062L88.7431 11.1573Z" fill="#1E2939"/>
<path d="M61.8579 16.0126C61.8579 16.1352 61.8814 17.4597 62.7586 18.9065H58.1832C59.0367 17.8521 59.084 16.4293 59.084 16.0859V10.2503C59.084 10.2503 59.0841 8.82748 58.1832 8.06729L61.834 6.35131L61.8579 16.0126Z" fill="#1E2939"/>
<path d="M17.9631 17.656H20.8318C21.2822 17.656 21.5433 17.6558 21.8989 17.3125L23.9616 15.8165L24.6251 18.8818H13.9093L20.7847 7.92062H18.1295C17.7027 7.92062 17.2759 7.9451 16.9914 8.33745L15.7108 10.2503L14.2653 6.69406H24.8624L17.9631 17.656Z" fill="#1E2939"/>
<path d="M100.992 6.20388C102.628 6.20388 103.766 7.16037 103.766 9.39189C103.766 11.5988 103.79 13.8305 103.79 16.062C103.79 16.332 103.861 17.2639 104.667 18.8818H100.376C101.205 16.726 101.253 16.0631 101.253 15.964V10.6177C101.253 10.5991 101.24 8.68095 98.645 8.68095C98.0997 8.68098 97.4593 8.82785 96.677 9.17112L96.7248 15.9879C96.7248 16.1105 96.7484 17.435 97.6256 18.8818H93.074C93.9035 17.8276 93.9509 16.3813 93.9509 16.062V10.1028C93.9509 10.0942 93.9482 8.7517 93.074 7.92062C93.074 7.87157 96.6539 6.20388 96.6539 6.20388V8.50882C97.1521 8.06718 99.3801 6.20403 100.992 6.20388Z" fill="#1E2939"/>
<path d="M60.3645 0.588209C61.1706 2.15758 62.4743 2.84451 62.4743 2.84451L60.3168 5.27218C58.8469 4.4139 58.1354 2.81981 58.1354 2.81981L60.3645 0.588209Z" fill="#1E2939"/>
<path d="M62.8344 29.7422C62.1606 30.3583 62.0976 30.9131 62.3714 31.7552C62.6449 32.596 64.1988 37.3672 64.2044 37.3844L66.2055 32.0427C66.5215 30.995 65.9954 30.5639 65.3001 29.7422H69.1136C68.4605 30.379 67.9544 30.9545 67.512 32.0227C67.4882 32.0788 65.1054 37.6829 64.141 39.9724C63.1507 42.2939 60.9175 44 59.0844 44C57.2304 44 56.6187 43.2811 56.6187 43.2811L58.8323 41.2063C58.8465 41.2473 59.393 42.8075 60.4116 42.808C61.7807 42.808 62.3506 40.5288 62.3509 39.9323C62.3509 39.9323 59.906 33.3776 59.5268 32.3504C59.1265 31.303 58.5787 30.42 57.9047 29.7422H62.8344Z" fill="#EA004A"/>
<path d="M8.15501 37.5482C8.15501 37.8358 8.06977 41.4928 4.23526 43.3212C3.20283 43.8143 2.38058 43.9783 1.76955 43.9783C0.484609 43.9781 0 43.2594 0 43.2594L2.23423 41.1645C2.59242 42.1298 3.26595 42.5208 4.02435 42.5003C5.64674 42.4387 5.70988 38.7398 5.70988 37.5482V32.9873C5.70866 32.9565 5.65761 31.7882 4.90913 31.18C4.90913 31.18 6.84867 30.3175 8.15501 29.7422V37.5482Z" fill="#EA004A"/>
<path fill-rule="evenodd" clip-rule="evenodd" d="M14.3107 29.4547C17.6398 29.4547 19.3261 31.8786 19.3261 34.9602C19.3261 38.8635 17.0498 40.2817 14.3107 40.2817C11.5507 40.2817 9.29554 38.8432 9.29527 34.8582C9.29527 30.8726 11.5506 29.4547 14.3107 29.4547ZM12.3937 30.9543C11.7616 30.9543 11.5089 31.3034 11.5089 31.9608C11.5089 33.6862 11.74 35.3296 12.4983 36.9112C13.1725 38.3904 14.4794 38.986 16.0597 38.986C16.5864 38.986 16.9239 38.5956 16.9239 37.7739C16.9239 36.028 16.9653 34.3433 16.1437 32.7616C15.4063 31.3445 13.9737 30.9544 12.3937 30.9543Z" fill="#EA004A"/>
<path d="M29.1598 36.9948C29.16 37.0288 29.1728 38.1543 29.9606 38.8423C29.9606 38.8627 26.7945 40.124 26.7593 40.138V38.3507C26.3378 38.7411 24.6101 40.2607 23.0933 40.2817H23.0504C20.6906 40.2817 20.6276 38.5962 20.6276 37.6101V32.6597C20.6276 32.6597 20.627 31.4885 19.8474 30.8106L22.8824 29.4547V36.3161C22.8824 36.3161 22.882 38.1651 24.9469 38.1651C25.4314 38.1651 25.9791 38.0615 26.7164 37.7739V32.7416C26.7164 32.7416 26.7163 31.591 25.9157 30.8925L29.1598 29.4547V36.9948Z" fill="#EA004A"/>
<path d="M72.8258 29.4547C75.6065 29.4548 76.3444 30.5431 76.3444 30.5431L75.3961 33.0492C75.392 33.0447 73.4128 30.9125 71.4764 30.9125C70.8656 30.9126 70.5916 31.016 70.5916 31.2419C70.592 31.7145 71.9615 32.5774 73.8786 33.9537C76.2595 35.6794 77.1228 36.2549 77.1228 37.6519C77.1226 38.1867 76.7852 40.26 72.6355 40.26C69.7421 40.26 68.6424 38.5928 68.6317 38.5764L70.6122 36.6036C70.6122 36.6036 71.9197 38.9254 74.6588 38.9459C74.9535 38.9458 75.2481 38.8225 75.5007 38.5764C75.5007 38.0834 74.2372 37.384 72.32 36.1104C69.4552 34.0976 69.1806 33.0091 69.1804 32.0026C69.1804 30.9959 70.4449 29.4547 72.8258 29.4547Z" fill="#EA004A"/>
<path fill-rule="evenodd" clip-rule="evenodd" d="M54.4428 29.4547C56.8231 29.455 57.7504 30.9543 57.7504 30.9543L53.0299 36.6454C53.0284 36.6553 53.0133 36.7767 53.1139 36.9731C53.9145 38.6372 54.822 38.7403 55.9808 38.7403C56.6335 38.7402 57.3073 38.6377 57.939 38.5146C57.7485 38.742 56.7788 40.2399 54.4205 40.2399C51.7448 40.2398 49.9966 38.5137 49.9966 34.6927C49.9967 31.6524 51.3456 29.4547 54.4428 29.4547ZM52.8413 30.9125C52.1038 30.8715 51.9129 31.2833 51.8707 32.0845C51.871 33.5432 52.7778 35.8441 52.7778 35.8646C52.7778 35.8646 54.2935 33.6456 54.652 33.1111C55.7264 31.5088 54.6108 31.0153 52.8413 30.9125Z" fill="#EA004A"/>
<path d="M33.7312 31.1382C34.1741 30.6447 35.4594 29.3309 37.1022 29.3309C38.4716 29.331 38.9146 30.0916 38.9146 30.0916L36.8484 32.5978C36.8421 32.5843 36.3354 31.5097 35.0377 31.5094C34.6796 31.5094 34.2367 31.6117 33.7312 31.817L33.7517 37.5282C33.7517 37.6309 33.7729 38.7403 34.5525 39.9524H30.5076C31.2447 39.0692 31.286 37.8575 31.286 37.59V32.556C31.2849 32.5263 31.2354 31.3172 30.5076 30.7286L33.7312 29.2908V31.1382Z" fill="#EA004A"/>
<path d="M46.166 29.3309C47.6198 29.3309 48.6317 30.1331 48.6317 32.0026C48.6317 33.8513 48.6523 35.7208 48.6523 37.59C48.6523 37.8163 48.7163 38.5969 49.4325 39.9524H45.619C46.3551 38.1479 46.3973 37.5919 46.3975 37.5081V33.0291C46.3975 33.0291 46.3982 31.406 44.081 31.4057C43.5964 31.4057 43.0272 31.5295 42.332 31.817L42.3731 37.5282C42.3731 37.6309 42.3945 38.7404 43.1739 39.9524H39.129C39.8662 39.0692 39.9091 37.8575 39.9091 37.59V32.5978C39.9091 32.5978 39.9086 31.4673 39.129 30.7688C39.1473 30.72 42.3114 29.3309 42.3114 29.3309V31.262C42.7551 30.8913 44.734 29.3312 46.166 29.3309Z" fill="#EA004A"/>
<path d="M6.70096 24.75C7.40759 26.0466 8.54423 26.6237 8.57511 26.6392L6.6581 28.6739C5.33714 27.9583 4.70433 26.6121 4.69822 26.5991L6.70096 24.75Z" fill="#EA004A"/>
</svg>
