<svg width="157" height="44" viewBox="0 0 157 44" fill="none" xmlns="http://www.w3.org/2000/svg">
<path fill-rule="evenodd" clip-rule="evenodd" d="M25.4824 5.5C36.5051 5.5 45.4474 14.6788 45.4474 26.001C45.4474 32.0557 42.8918 37.4922 38.8199 41.25C29.9145 40.2805 20.7336 40.1582 11.7588 40.8898C7.91031 37.1498 5.50879 31.8622 5.50879 26.001C5.50879 14.6765 14.451 5.5 25.4824 5.5Z" fill="#ED9935"/>
<path d="M39.4055 41.25C39.2591 41.1989 39.1104 41.15 38.8864 41.0713C39.0394 40.9203 39.1437 40.7288 39.2879 40.6927C39.7383 40.5821 39.7982 40.2673 39.8337 39.9163C39.8359 39.8907 39.8426 39.8588 39.8315 39.8376C39.5009 39.1356 39.6851 38.3571 39.4787 37.6381C39.2724 36.9255 39.0905 36.2044 38.8442 35.5024C38.7089 35.1174 38.4582 34.7728 38.2696 34.4048C37.9922 33.8581 37.7504 33.2944 37.442 32.7647C37.2379 32.4095 36.9761 32.0755 36.6877 31.7777C36.2351 31.3119 35.8734 30.7992 35.6138 30.2185C35.4874 29.9335 35.3299 29.7165 34.9948 29.6144C34.8018 29.5548 34.6399 29.4059 34.4801 29.3081C34.4801 30.0505 34.4291 30.8099 34.4934 31.5608C34.5644 32.3776 34.7308 33.1859 34.875 33.9942C34.915 34.2282 34.8462 34.3835 34.6998 34.5728C34.0719 35.3854 33.4618 36.2107 32.8716 37.0467C32.4367 37.6615 32.044 38.3018 31.6358 38.9335C31.5581 39.0548 31.4783 39.1803 31.4361 39.3164C31.3385 39.6461 31.1699 39.9141 30.8526 40.0992C30.6529 40.2162 30.5908 40.3864 30.775 40.5863C30.8393 40.6565 30.8681 40.7586 30.9369 40.8905C29.8587 41.0671 28.8447 40.9373 27.8375 40.6842C27.9329 40.2056 28.2013 40.0333 28.6517 40.0609C29.2086 40.095 29.588 39.778 29.9141 39.3887C30.0739 39.1952 30.2269 38.9888 30.4222 38.8314C30.928 38.423 31.1943 37.8678 31.4738 37.3254C31.9708 36.3575 32.3458 35.3492 32.4389 34.2623C32.4456 34.1836 32.4545 34.0963 32.4922 34.0283C32.7096 33.6347 32.6098 33.237 32.561 32.8264C32.4545 31.9415 32.3768 31.0502 32.3147 30.1611C32.2903 29.8441 32.2282 29.5953 31.8932 29.4442C31.7689 29.3889 31.6646 29.2294 31.6158 29.0975C31.4228 28.5721 31.2253 28.0552 30.8637 27.6064C30.7151 27.4234 30.755 27.2235 30.8415 27.0235C31.1588 26.279 31.303 25.4983 31.4073 24.6624C30.9303 24.656 30.4688 24.5858 30.0339 24.8091C29.7122 24.9729 29.3794 25.124 29.0777 25.3197C27.7487 26.1769 26.28 26.5811 24.6803 26.5747C24.4651 26.5747 24.2499 26.5832 24.0347 26.5874C23.7818 26.5938 23.52 26.53 23.3469 26.8129C23.2914 26.9065 23.1095 26.964 22.9764 26.981C22.3485 27.0576 21.7184 27.132 21.0861 27.1724C20.8642 27.1852 20.6002 27.1533 20.5514 26.8512C20.1875 27.0703 20.1054 27.2937 20.2541 27.6574C20.7444 28.8656 21.2303 30.0739 21.7295 31.2757C21.8293 31.5118 21.9558 31.748 22.1155 31.95C22.4905 32.4223 22.5881 32.9349 22.5815 33.522C22.5726 34.4707 22.688 35.4131 23.125 36.2937C23.3314 36.7106 23.5355 37.1339 23.6952 37.5679C23.8572 38.0146 23.9681 38.4762 24.0857 38.9356C24.1079 39.0207 24.0657 39.1292 24.0302 39.2186C23.9127 39.5185 23.9304 39.795 24.1456 40.0524C24.1789 40.0928 24.2077 40.1417 24.2344 40.1885C24.4052 40.4949 24.3364 40.6735 23.9814 40.682C23.0407 40.7054 22.0978 40.6906 21.1504 40.6906C21.1815 40.246 21.481 39.9928 21.8715 40.0184C22.4905 40.0567 22.79 39.6227 22.5571 39.076C22.4617 38.8548 22.4084 38.5889 22.4373 38.3528C22.4838 37.9423 22.4328 37.5615 22.2953 37.1744C22.1377 36.7255 22.0068 36.2682 21.8715 35.813C21.7317 35.3407 21.5099 34.9196 21.1571 34.5558C20.5869 33.9666 20.314 33.2434 20.1831 32.4669C20.0411 31.6331 19.7372 30.8631 19.2091 30.1802C19.1536 30.11 19.0937 30.0441 18.9828 29.9165C18.7698 30.661 18.5568 31.3438 18.3816 32.0351C18.3039 32.3436 18.2573 32.6733 18.2817 32.9881C18.3106 33.3965 18.2285 33.7539 17.9622 34.0602C17.4142 34.6898 17.2323 35.4471 17.148 36.2214C17.0615 36.9999 17.0548 37.787 17.0348 38.5719C17.0282 38.8846 17.0016 39.176 16.773 39.4206C16.5867 39.6185 16.6421 39.8057 16.8063 39.995C17.2855 40.5544 17.2123 40.7437 16.4735 40.8777C15.8723 40.9884 15.2777 41.0437 14.672 40.8501C14.4545 40.782 14.1883 40.8714 13.9487 40.8522C13.7823 40.8373 13.6225 40.7608 13.4606 40.7118C13.5316 40.5438 13.5626 40.3396 13.6847 40.2205C13.8244 40.0822 14.033 39.9801 14.2327 39.9312C14.7762 39.795 15.1601 39.4206 15.2732 38.891C15.3154 38.7038 15.393 38.5145 15.4973 38.3549C15.8545 37.8168 15.9499 37.2041 16.0742 36.6C16.1651 36.1639 16.2339 35.7194 16.2894 35.2769C16.3115 35.0961 16.2761 34.9068 16.2516 34.7217C16.2051 34.3431 16.1474 33.9645 16.0919 33.5858C16.0786 33.4901 16.0453 33.3944 16.0409 33.2987C16.0342 33.1604 16.0098 33.0094 16.0564 32.8839C16.4469 31.8352 16.9061 30.8056 17.0881 29.6952C17.1857 29.0954 17.3144 28.4998 17.4053 27.8978C17.4275 27.7616 17.3832 27.6042 17.3299 27.4702C17.1236 26.9554 16.9061 26.4471 16.6821 25.9387C16.651 25.8685 16.5711 25.7898 16.4979 25.7706C15.91 25.6175 15.5106 25.275 15.3176 24.7219C15.2599 24.5624 15.1512 24.5007 14.9804 24.5007C14.7274 24.5028 14.4745 24.4837 14.2216 24.4922C13.363 24.5262 12.4999 24.5943 11.6213 24.2986C11.5947 24.6709 11.5703 25.0155 11.5459 25.3579C11.4394 26.9554 11.3307 28.5508 11.2308 30.1483C11.2242 30.2547 11.3174 30.3632 11.3462 30.4738C11.3972 30.678 11.4372 30.8843 11.4793 31.0907C11.4926 31.1609 11.5104 31.2396 11.4882 31.3012C11.4616 31.3736 11.395 31.4289 11.344 31.4927C11.182 31.3587 10.9224 31.7118 10.8226 31.4267C10.7472 31.2119 10.7671 30.9652 10.7583 30.7312C10.756 30.6652 10.7738 30.5695 10.8204 30.5312C11.0356 30.3547 11.0023 30.1164 11.0156 29.8909C11.1354 28.0616 11.2508 26.2322 11.3817 24.405C11.3972 24.1837 11.3218 24.0455 11.1155 24.0072C10.3234 23.8647 9.83308 23.3052 9.27619 22.8351C9.11423 22.699 8.96558 22.5416 8.78365 22.4352C8.25783 22.1289 8.07368 21.6418 7.91838 21.1121C7.79413 20.6867 7.60111 20.2783 7.41696 19.8699C7.35706 19.738 7.2306 19.6316 7.13519 19.5125C6.73805 19.8656 6.42744 19.9167 6.04805 19.6954C6.1013 19.6699 6.15011 19.6465 6.19892 19.6231C6.03696 19.4806 5.87943 19.3381 5.71969 19.1955C5.81509 19.1275 5.92159 19.053 6.02808 18.9786C6.01477 18.9616 6.00368 18.9424 5.99037 18.9233C5.92825 18.9594 5.8639 18.9935 5.78625 19.036C5.77516 18.8467 5.76628 18.6978 5.58879 18.5659C5.43349 18.4489 5.35805 18.2319 5.25156 18.0639C5.32921 17.949 5.40686 17.8363 5.48895 17.7172C5.33143 17.7427 5.20274 17.764 5.07406 17.7852C5.06963 17.7618 5.06297 17.7384 5.05853 17.715C5.15393 17.681 5.24934 17.647 5.38689 17.5959C5.0075 17.4577 5.12509 17.2088 5.1495 17.0088C4.98975 16.9471 4.84554 16.894 4.69911 16.8386C4.70577 16.811 4.7102 16.7855 4.71686 16.7599H4.96757C4.972 16.7408 4.97422 16.7217 4.97866 16.7025C4.92319 16.694 4.85663 16.7025 4.81892 16.6749C4.75901 16.6302 4.7213 16.5621 4.67471 16.5026C4.74127 16.4749 4.80783 16.4451 4.8766 16.4196C4.9476 16.3941 5.02082 16.3728 5.09181 16.3494C5.0785 16.3175 5.06297 16.2856 5.04966 16.2537C5.01638 16.2792 4.98088 16.3047 4.88991 16.3749V15.4156C4.73461 15.49 4.60593 15.5517 4.45284 15.6262C4.5549 15.6878 4.63033 15.7346 4.70798 15.7814C4.68802 15.8048 4.67027 15.8261 4.6503 15.8495C4.5438 15.7666 4.35522 15.69 4.34856 15.6006C4.33747 15.4645 4.45284 15.3198 4.48612 15.1582C4.40847 15.2263 4.33303 15.2965 4.25538 15.3666C3.94699 15.0859 3.80943 14.737 3.77615 14.3562C3.7584 14.1542 3.65856 14.0457 3.48994 13.9329C3.03956 13.6309 2.61136 13.2969 2.16097 12.9927C2.05669 12.9225 1.89029 12.8885 1.76383 12.9055C1.3445 12.9651 0.942928 12.9438 0.552445 12.78C0.226303 12.6439 0.201897 12.5099 0.46148 12.2844C0.306174 12.1929 0.153087 12.1036 0 12.0142C0 11.9249 0 11.8356 0 11.7462C0.175274 11.4505 0.350547 11.1549 0.52804 10.8592C0.552445 10.8166 0.587944 10.7805 0.625661 10.7464C0.745468 10.6401 0.898555 10.5571 0.985083 10.4316C1.21582 10.0891 1.52422 9.89345 1.95242 9.88069C2.60692 9.86154 3.2592 9.8424 3.91371 9.83814C4.04904 9.83601 4.20213 9.86367 4.31528 9.92748C4.78342 10.1891 5.27596 10.2636 5.79956 10.1572C6.07468 10.1019 6.34979 10.0509 6.61825 9.97215C7.37259 9.75306 8.1114 9.78496 8.84356 10.0594C8.92121 10.0891 9.04767 10.0806 9.11867 10.0402C9.49806 9.81687 9.85305 9.82113 10.2125 10.0657C10.0683 10.5827 9.57349 11.0251 9.88411 11.6271C9.89964 11.6569 9.89298 11.7015 9.88411 11.7334C9.70883 12.3525 10.1947 12.8077 10.3167 13.3543C10.319 13.3629 10.3234 13.3714 10.3278 13.3777C10.461 13.4777 10.5963 13.5756 10.7294 13.6755C10.7693 13.716 10.8093 13.7564 10.8581 13.8053C10.7849 13.8117 10.7339 13.8138 10.6052 13.8223C10.8448 13.95 11.0134 14.0414 11.1798 14.1308C11.1754 14.1435 11.1709 14.1584 11.1665 14.1712C11.0134 14.135 10.8581 14.0989 10.6673 14.0542C10.7782 14.1733 10.8625 14.2648 10.9624 14.3711C10.8781 14.386 10.8204 14.3967 10.7938 14.4009V15.7878C10.9402 15.7346 11.0689 15.69 11.1953 15.6411C12.7284 15.0518 14.1705 14.2988 15.5838 13.4905C16.9505 12.7098 18.2595 11.8504 19.4598 10.8464C19.5597 10.7635 19.5996 10.689 19.5952 10.538C19.5907 10.287 19.6528 10.0211 19.7571 9.79134C19.8059 9.68711 20.0278 9.65521 20.1654 9.59352C20.1276 9.49567 20.0877 9.38506 20.0455 9.27657C20.0766 9.25104 20.1077 9.22552 20.1387 9.19999C20.3806 9.3808 20.6202 9.56587 20.8687 9.73817C20.9485 9.79347 21.0573 9.86154 21.1416 9.84878C21.3457 9.81687 21.5454 9.74029 21.7339 9.68499C21.7828 9.44887 21.8049 9.20425 21.8848 8.97877C22.0889 8.39805 22.1688 7.80244 22.1821 7.18982C22.1865 6.98136 22.3174 6.77502 22.404 6.57294C22.4883 6.37512 22.6525 6.19218 22.6702 5.99435C22.7279 5.35408 22.9453 4.8159 23.5377 4.46067C23.5421 4.45854 23.5377 4.44365 23.5377 4.42238C23.3935 4.43727 23.2471 4.46705 23.1006 4.46279C22.9986 4.46067 22.8544 4.44365 22.8056 4.37983C22.617 4.13734 22.648 3.8842 22.8166 3.6332C22.9764 3.39708 22.8987 2.93974 22.6769 2.75255C22.719 2.6781 22.7567 2.59727 22.8078 2.52282C22.9631 2.28883 22.972 1.84213 22.8033 1.62303C22.6281 1.39329 22.617 1.14442 22.6791 0.882774C22.7856 0.448832 23.0873 0.178682 23.4978 0H23.9459C24.6404 0.442451 25.4258 0.733872 26.0692 1.26141C26.5351 1.64217 26.6349 2.21013 26.2245 2.65045C26.1047 2.77595 25.9538 2.87167 25.8074 2.9908C25.9982 3.15459 26.351 3.15671 26.3044 3.50344C26.3022 3.51833 26.3421 3.5396 26.3643 3.55237C27.1852 4.07352 27.62 4.85632 27.9484 5.70506C28.0371 5.93267 28.1414 6.12624 28.3921 6.22196C28.594 6.30067 28.6229 6.41128 28.4787 6.59209C28.4054 6.68356 28.4077 6.83884 28.4054 6.96434C28.4054 7.06432 28.452 7.16429 28.4764 7.26427C28.4476 7.28129 28.4165 7.29831 28.3877 7.31532C28.1259 6.95583 27.8663 6.59634 27.5623 6.17516C27.6245 6.4049 27.6711 6.55805 27.7066 6.71334C27.9617 7.77479 28.2102 8.83837 28.7382 9.819C28.9357 10.1827 28.9534 10.5848 28.8514 10.9719C28.716 11.4824 28.5319 11.9781 28.3788 12.4843C28.3544 12.5652 28.3477 12.6843 28.3921 12.7481C28.7294 13.2374 29.1886 13.4139 29.7743 13.2565C30.2247 13.1352 30.6618 12.9736 31.1033 12.8247C31.1588 12.8077 31.2342 12.7566 31.2431 12.7119C31.3008 12.3801 31.3651 12.0483 31.3829 11.7122C31.394 11.5463 31.3962 11.3867 31.5737 11.3442C31.709 11.3101 31.9264 11.3123 31.9952 11.3888C32.0817 11.4846 32.0795 11.676 32.0662 11.8228C32.0507 11.9759 31.9619 12.1227 31.9287 12.2759C31.8798 12.5099 31.8488 12.7502 31.8089 12.9842C32.206 13.2118 32.368 13.4799 32.2836 13.7798C32.1971 14.0776 32.0573 14.3541 32.368 14.6455C32.4789 14.7498 32.4212 15.0157 32.4456 15.2071C32.4744 15.4517 32.4323 15.7368 32.5565 15.9261C32.6985 16.1388 32.7873 16.3388 32.8161 16.5834C32.8272 16.6855 32.8694 16.7918 32.9248 16.8812C33.0247 17.0429 33.1556 17.1832 33.0469 17.3981C33.0225 17.4449 33.0957 17.564 33.1556 17.6214C33.3397 17.8001 33.5461 17.9554 33.7258 18.1362C33.9898 18.4 34.2494 18.6701 34.4934 18.9509C34.8462 19.353 35.1635 19.7869 35.534 20.1719C35.9267 20.5782 36.1707 21.0313 36.2018 21.5801C36.2306 22.08 36.2284 22.582 36.2639 23.0798C36.295 23.5328 36.3061 24.0029 36.792 24.3114C36.7187 24.3178 36.6788 24.3199 36.5834 24.3263C36.7764 24.5496 36.9495 24.7496 37.1159 24.9431C37.0959 24.9474 37.0427 24.958 36.9539 24.9793C37.2801 25.2495 37.5751 25.4962 37.8724 25.743C37.5774 26.0003 37.4043 25.6579 37.1669 25.5707C37.2401 25.9238 37.5396 26.0471 37.848 26.2088C37.7659 26.296 37.6994 26.3662 37.6284 26.4407C37.7415 26.6257 37.8569 26.8151 37.9856 27.0299C37.564 26.9576 37.6772 26.4939 37.4198 26.3237C37.3976 26.3364 37.3755 26.3492 37.3511 26.3641C37.5219 26.7236 37.6949 27.0831 37.868 27.4468C37.7859 27.3788 37.7105 27.3171 37.635 27.2554C37.726 27.5043 37.8436 27.7276 37.9856 27.9339C38.1564 28.1786 38.345 28.4126 38.538 28.6402C38.7444 28.8869 38.7288 29.0103 38.5203 29.0911C38.0721 28.772 37.655 28.4742 37.2246 28.1658C37.2956 28.4168 37.3466 28.6125 37.4043 28.804C37.4309 28.8975 37.4487 29.0018 37.5019 29.0805C38.1697 30.0696 38.7532 31.1141 39.6296 31.967C39.776 32.1096 39.8714 32.3584 39.8781 32.5605C39.8981 33.1583 39.8337 33.7581 39.8537 34.3537C39.9047 35.7619 40.0733 37.1488 40.7522 38.4379C40.8632 38.6527 40.8987 38.9505 40.8454 39.1845C40.7389 39.6653 40.8587 40.0056 41.3158 40.2311V40.4459C40.8476 40.714 40.3795 40.982 39.9114 41.25H39.4055ZM19.2424 11.391C18.3505 11.9611 17.3787 12.5949 16.3936 13.2097C14.6964 14.2626 12.9348 15.205 11.0511 15.9282C11.0023 15.9474 10.9136 15.9942 10.918 16.0048C11.0001 16.2452 10.7361 16.0941 10.6828 16.1962C10.7494 16.2728 10.8159 16.3494 10.8825 16.426L10.8581 16.4558C10.7716 16.4132 10.6828 16.3728 10.583 16.3239C10.5675 16.5111 10.5541 16.6749 10.5408 16.8408C10.6296 16.862 10.6673 16.9152 10.6961 16.9727C10.7161 17.0131 10.7183 17.0663 10.7427 17.1024C10.8758 17.2875 11.0112 17.4683 11.1465 17.6533C11.0911 17.7363 11.0422 17.8065 10.9934 17.8788C11.0178 17.8661 11.0445 17.8533 11.0689 17.8427C11.1865 17.9788 11.293 18.1256 11.4239 18.2468C11.6258 18.434 11.821 18.7084 12.0628 18.7616C12.4822 18.8509 12.9392 18.8382 13.3718 18.7956C14.1018 18.7212 14.6831 18.2936 15.3021 17.9639C15.6948 17.7555 15.9921 17.4577 16.2406 17.1003C16.4469 16.8046 16.651 16.4558 16.9527 16.2856C17.676 15.8729 17.9534 15.2454 18.1042 14.52C18.1131 14.4775 18.1308 14.4349 18.1464 14.3924C18.5235 13.3586 18.9029 12.3248 19.2424 11.391ZM20.4249 12.1759C20.1587 12.2355 19.8747 12.2312 19.7372 12.0036C19.6196 11.81 19.6218 11.5484 19.5597 11.2633C19.1914 12.1589 18.8386 13.0161 18.4858 13.8734C19.0826 13.5118 19.624 13.1204 20.1809 12.7545C20.405 12.6077 20.5802 12.478 20.4249 12.1759ZM19.8481 10.8315C19.8481 11.14 19.8148 11.4271 19.8636 11.6994C19.8836 11.8228 20.0566 11.9951 20.1787 12.01C20.3451 12.0291 20.4804 11.9079 20.5004 11.6866C20.5137 11.5377 20.6446 11.3952 20.7444 11.2123C20.6024 10.9273 20.2718 10.8783 19.8481 10.8315ZM38.3872 28.7338C37.9545 28.2807 37.5241 27.8255 37.0915 27.3702C37.3022 28.0169 37.7127 28.487 38.3872 28.7338ZM26.7481 4.87546C26.6749 4.4713 26.5506 4.35218 26.2201 4.34155C26.4109 4.53512 26.5795 4.70529 26.7481 4.87546Z" fill="#221C1C"/>
<path fill-rule="evenodd" clip-rule="evenodd" d="M4.13159 44C19.6563 36.6666 32.5936 36.6667 46.8246 44C29.7449 40.3575 21.2127 40.3575 4.13159 44Z" fill="#1F0F12"/>
<path d="M120.302 6.35131C123.408 6.35132 124.249 7.63151 124.261 7.65046L123.195 10.6424C123.195 10.6424 120.966 8.09209 118.785 8.09199C118.098 8.09199 117.79 8.21458 117.789 8.48413C117.789 9.04813 119.33 10.0786 121.487 11.7215C124.166 13.7814 125.139 14.4678 125.139 16.1353C125.139 16.7729 124.759 19.25 120.089 19.25C116.836 19.25 115.598 17.2617 115.584 17.2392L117.812 14.8848C117.812 14.8848 119.283 17.6554 122.365 17.6799C122.697 17.6799 123.029 17.5334 123.313 17.2392C123.313 16.6506 121.891 15.8162 119.733 14.2959C116.509 11.8928 116.201 10.5934 116.201 9.39189C116.201 8.1903 117.623 6.35131 120.302 6.35131Z" fill="#1E2939"/>
<path d="M129.521 6.69406H132.342L131.892 7.92062H129.568V16.1353C129.568 18.0971 133.267 17.5576 133.907 17.2878C133.907 17.2878 132.982 19.25 129.71 19.25C127.269 19.25 126.486 17.1408 126.51 16.0373C126.533 14.9617 126.793 7.96465 126.795 7.92062H125.657L129.521 3.80091V6.69406Z" fill="#1E2939"/>
<path fill-rule="evenodd" clip-rule="evenodd" d="M94.4543 6.35131C97.1332 6.35131 98.1767 8.14138 98.1767 8.14138L92.8662 14.9335C92.8662 14.9335 92.8424 15.0811 92.9609 15.3264C93.8617 17.3123 94.8812 17.4352 96.1849 17.4352C96.9198 17.4352 97.6789 17.3122 98.3901 17.1651C98.1767 17.4348 97.0862 19.2252 94.4311 19.2253C91.4202 19.2253 89.452 17.165 89.452 12.6038C89.4521 8.97481 90.9695 6.35146 94.4543 6.35131ZM92.6527 8.09199C91.823 8.04296 91.6098 8.53357 91.5624 9.48992C91.5625 11.2288 92.5792 13.9703 92.5818 14.0018C92.5979 13.9769 94.2904 11.3503 94.6916 10.7157C95.9005 8.80308 94.6441 8.2146 92.6527 8.09199Z" fill="#1E2939"/>
<path fill-rule="evenodd" clip-rule="evenodd" d="M80.8893 8.55822C81.3635 8.14135 83.5445 6.35135 84.967 6.35131C87.3141 6.35131 88.476 9.71062 88.476 12.5552C88.4759 16.258 86.8872 19.1759 83.8289 19.1759C82.7858 19.1759 81.6003 18.8324 80.249 18.0968C79.2821 18.5359 78.1511 18.9753 78.1393 18.9798V3.97228C78.1393 3.96368 78.1361 2.5965 77.2617 1.76538L80.8893 0.0486432V8.55822ZM82.9282 8.90096C82.0984 8.90097 81.2687 9.09768 80.8893 9.29385V15.0809C80.8893 15.179 80.9132 15.6206 81.008 16.062C81.3875 17.6066 83.4022 18.2931 84.6349 17.3125C85.2276 16.8221 85.5356 15.13 85.5357 13.4136C85.5357 11.7951 85.2749 10.2257 84.8245 9.61265C84.3977 9.07319 83.6631 8.90096 82.9282 8.90096Z" fill="#1E2939"/>
<path d="M57.4306 1.74068C56.5771 3.16297 56.5768 4.53654 56.5768 4.53654C56.6005 7.38104 56.6485 10.0784 56.6485 13.0701C56.6485 16.0861 58.9714 17.2877 60.8679 17.2878C62.8356 17.2878 63.0731 14.7132 63.0731 13.1928V4.46246C63.073 4.11858 62.9071 2.67224 62.2672 1.74068H66.25C65.444 3.16297 65.4441 4.53654 65.4441 4.53654V13.1195C65.4439 14.9098 64.5188 19.1272 59.2798 19.1273C54.3487 19.1273 53.2815 15.9883 53.2104 12.6779V4.51185C53.1867 4.31567 53.187 2.77061 52.3335 1.74068H57.4306Z" fill="#1E2939"/>
<path d="M102.381 11.2306C102.879 10.8628 104.135 9.93129 105.534 8.55822C105.937 8.11682 105.558 7.08641 105.297 6.69406H109.588C107.36 8.53322 106.482 8.82786 104.847 10.4463C104.859 10.4768 107.532 16.9982 110.3 18.9065C110.3 18.9065 109.375 19.1026 108.332 19.1026C107.573 19.1026 106.767 19.0043 106.198 18.661C105.274 18.0725 103.235 14.3453 102.429 12.7513C102.452 13.8302 102.452 14.9337 102.452 16.0126C102.452 16.1352 102.476 17.4597 103.353 18.9065H98.801C99.6308 17.8521 99.6787 16.4047 99.6787 16.0859V3.89894C99.6787 3.89894 99.6782 2.54974 98.801 1.71598L102.381 0V11.2306Z" fill="#1E2939"/>
<path fill-rule="evenodd" clip-rule="evenodd" d="M135.577 7.38105C136.928 6.00781 138.896 5.81154 140.65 6.52268C143.922 7.84687 143.969 9.66161 143.969 10.1275V15.6691C143.969 15.8898 143.993 17.0914 144.823 17.778L142.239 18.9065C142.232 18.9049 141.195 18.6562 141.195 17.2631V16.8463C140.721 17.3367 139.062 19.0532 137.758 19.0532C136.312 19.0532 134.036 16.5526 134.036 14.8115C134.036 14.2966 134.249 13.8059 134.771 13.5116C136.833 12.4326 139.489 11.0589 141.053 10.2742C141.101 9.73422 140.935 7.74849 140.2 7.74849C138.777 7.74852 137.402 8.95071 136.739 10.373L135.577 7.38105ZM141.077 11.1573C140.721 11.378 139.938 11.8689 138.018 13.0948C137.379 13.5116 137.118 14.1001 137.118 14.6641C137.118 15.4242 137.568 16.1601 138.137 16.2828C138.445 16.3563 138.777 16.3808 139.133 16.3808C139.915 16.3808 140.745 16.2581 141.195 16.062L141.077 11.1573Z" fill="#1E2939"/>
<path d="M114.191 16.0126C114.191 16.1352 114.215 17.4597 115.092 18.9065H110.517C111.37 17.8521 111.417 16.4293 111.417 16.0859V10.2503C111.417 10.2503 111.418 8.82748 110.517 8.06729L114.167 6.35131L114.191 16.0126Z" fill="#1E2939"/>
<path d="M70.2966 17.656H73.1652C73.6157 17.656 73.8768 17.6558 74.2324 17.3125L76.2951 15.8165L76.9586 18.8818H66.2428L73.1182 7.92062H70.463C70.0362 7.92062 69.6094 7.9451 69.3249 8.33745L68.0443 10.2503L66.5988 6.69406H77.1959L70.2966 17.656Z" fill="#1E2939"/>
<path d="M153.326 6.20388C154.961 6.20388 156.099 7.16037 156.099 9.39189C156.099 11.5988 156.123 13.8305 156.123 16.062C156.123 16.332 156.194 17.2639 157 18.8818H152.709C153.538 16.726 153.587 16.0631 153.587 15.964V10.6177C153.587 10.5991 153.574 8.68095 150.978 8.68095C150.433 8.68098 149.793 8.82785 149.011 9.17112L149.058 15.9879C149.058 16.1105 149.082 17.435 149.959 18.8818H145.408C146.237 17.8276 146.284 16.3813 146.284 16.062V10.1028C146.284 10.0942 146.282 8.7517 145.408 7.92062C145.408 7.87157 148.987 6.20388 148.987 6.20388V8.50882C149.486 8.06718 151.714 6.20403 153.326 6.20388Z" fill="#1E2939"/>
<path d="M112.698 0.588209C113.504 2.15758 114.808 2.84451 114.808 2.84451L112.65 5.27218C111.18 4.4139 110.469 2.81981 110.469 2.81981L112.698 0.588209Z" fill="#1E2939"/>
<path d="M115.168 29.7422C114.494 30.3583 114.431 30.9131 114.705 31.7552C114.978 32.596 116.532 37.3672 116.538 37.3844L118.539 32.0427C118.855 30.995 118.329 30.5639 117.634 29.7422H121.447C120.794 30.379 120.288 30.9545 119.846 32.0227C119.822 32.0788 117.439 37.6829 116.474 39.9724C115.484 42.2939 113.251 44 111.418 44C109.564 44 108.952 43.2811 108.952 43.2811L111.166 41.2063C111.18 41.2473 111.726 42.8075 112.745 42.808C114.114 42.808 114.684 40.5288 114.684 39.9323C114.684 39.9323 112.24 33.3776 111.86 32.3504C111.46 31.303 110.912 30.42 110.238 29.7422H115.168Z" fill="#EA004A"/>
<path d="M60.4885 37.5482C60.4885 37.8358 60.4033 41.4928 56.5688 43.3212C55.5363 43.8143 54.7141 43.9783 54.103 43.9783C52.8181 43.9781 52.3335 43.2594 52.3335 43.2594L54.5677 41.1645C54.9259 42.1298 55.5994 42.5208 56.3578 42.5003C57.9802 42.4387 58.0434 38.7398 58.0434 37.5482V32.9873C58.0422 32.9565 57.9911 31.7882 57.2426 31.18C57.2426 31.18 59.1822 30.3175 60.4885 29.7422V37.5482Z" fill="#EA004A"/>
<path fill-rule="evenodd" clip-rule="evenodd" d="M66.6442 29.4547C69.9733 29.4547 71.6596 31.8786 71.6596 34.9602C71.6596 38.8635 69.3833 40.2817 66.6442 40.2817C63.8842 40.2817 61.629 38.8432 61.6288 34.8582C61.6288 30.8726 63.8841 29.4547 66.6442 29.4547ZM64.7272 30.9543C64.0951 30.9543 63.8424 31.3034 63.8424 31.9608C63.8424 33.6862 64.0735 35.3296 64.8318 36.9112C65.506 38.3904 66.8129 38.986 68.3932 38.986C68.9198 38.986 69.2574 38.5956 69.2574 37.7739C69.2574 36.028 69.2988 34.3433 68.4772 32.7616C67.7397 31.3445 66.3072 30.9544 64.7272 30.9543Z" fill="#EA004A"/>
<path d="M81.4933 36.9948C81.4935 37.0288 81.5063 38.1543 82.2941 38.8423C82.2941 38.8627 79.128 40.124 79.0928 40.138V38.3507C78.6713 38.7411 76.9436 40.2607 75.4268 40.2817H75.3839C73.0241 40.2817 72.9611 38.5962 72.9611 37.6101V32.6597C72.9611 32.6597 72.9605 31.4885 72.1809 30.8106L75.2159 29.4547V36.3161C75.2159 36.3161 75.2155 38.1651 77.2804 38.1651C77.7649 38.1651 78.3126 38.0615 79.0499 37.7739V32.7416C79.0499 32.7416 79.0498 31.591 78.2491 30.8925L81.4933 29.4547V36.9948Z" fill="#EA004A"/>
<path d="M125.159 29.4547C127.94 29.4548 128.678 30.5431 128.678 30.5431L127.73 33.0492C127.725 33.0447 125.746 30.9125 123.81 30.9125C123.199 30.9126 122.925 31.016 122.925 31.2419C122.925 31.7145 124.295 32.5774 126.212 33.9537C128.593 35.6794 129.456 36.2549 129.456 37.6519C129.456 38.1867 129.119 40.26 124.969 40.26C122.076 40.26 120.976 38.5928 120.965 38.5764L122.946 36.6036C122.946 36.6036 124.253 38.9254 126.992 38.9459C127.287 38.9458 127.582 38.8225 127.834 38.5764C127.834 38.0834 126.571 37.384 124.653 36.1104C121.789 34.0976 121.514 33.0091 121.514 32.0026C121.514 30.9959 122.778 29.4547 125.159 29.4547Z" fill="#EA004A"/>
<path fill-rule="evenodd" clip-rule="evenodd" d="M106.776 29.4547C109.157 29.455 110.084 30.9543 110.084 30.9543L105.363 36.6454C105.362 36.6553 105.347 36.7767 105.447 36.9731C106.248 38.6372 107.155 38.7403 108.314 38.7403C108.967 38.7402 109.641 38.6377 110.272 38.5146C110.082 38.742 109.112 40.2399 106.754 40.2399C104.078 40.2398 102.33 38.5137 102.33 34.6927C102.33 31.6524 103.679 29.4547 106.776 29.4547ZM105.175 30.9125C104.437 30.8715 104.246 31.2833 104.204 32.0845C104.204 33.5432 105.111 35.8441 105.111 35.8646C105.111 35.8646 106.627 33.6456 106.985 33.1111C108.06 31.5088 106.944 31.0153 105.175 30.9125Z" fill="#EA004A"/>
<path d="M86.0647 31.1382C86.5076 30.6447 87.7929 29.3309 89.4357 29.3309C90.8051 29.331 91.2481 30.0916 91.2481 30.0916L89.1819 32.5978C89.1756 32.5843 88.6689 31.5097 87.3712 31.5094C87.0131 31.5094 86.5702 31.6117 86.0647 31.817L86.0852 37.5282C86.0852 37.6309 86.1064 38.7403 86.886 39.9524H82.8411C83.5782 39.0692 83.6195 37.8575 83.6195 37.59V32.556C83.6184 32.5263 83.5689 31.3172 82.8411 30.7286L86.0647 29.2908V31.1382Z" fill="#EA004A"/>
<path d="M98.4995 29.3309C99.9533 29.3309 100.965 30.1331 100.965 32.0026C100.965 33.8513 100.986 35.7208 100.986 37.59C100.986 37.8163 101.05 38.5969 101.766 39.9524H97.9525C98.6886 38.1479 98.7308 37.5919 98.731 37.5081V33.0291C98.731 33.0291 98.7317 31.406 96.4145 31.4057C95.9299 31.4057 95.3607 31.5295 94.6655 31.817L94.7066 37.5282C94.7066 37.6309 94.728 38.7404 95.5074 39.9524H91.4625C92.1997 39.0692 92.2426 37.8575 92.2426 37.59V32.5978C92.2426 32.5978 92.2421 31.4673 91.4625 30.7688C91.4808 30.72 94.6449 29.3309 94.6449 29.3309V31.262C95.0886 30.8913 97.0674 29.3312 98.4995 29.3309Z" fill="#EA004A"/>
<path d="M59.0345 24.75C59.7411 26.0466 60.8777 26.6237 60.9086 26.6392L58.9916 28.6739C57.6706 27.9583 57.0378 26.6121 57.0317 26.5991L59.0345 24.75Z" fill="#EA004A"/>
</svg>
