<svg width="21" height="21" viewBox="0 0 21 21" fill="none" xmlns="http://www.w3.org/2000/svg">
<path d="M14.0222 2.44781C14.1145 2.16414 14.3157 1.92874 14.5815 1.79337C14.8473 1.658 15.156 1.63374 15.4397 1.72594L15.75 1.82625V1.5C15.75 1.20163 15.8685 0.915484 16.0795 0.704505C16.2905 0.493527 16.5766 0.375 16.875 0.375C17.1734 0.375 17.4595 0.493527 17.6705 0.704505C17.8815 0.915484 18 1.20163 18 1.5V1.82625L18.3103 1.72594C18.4516 1.67714 18.6012 1.65698 18.7503 1.66664C18.8995 1.6763 19.0452 1.71558 19.179 1.78219C19.3128 1.8488 19.432 1.9414 19.5296 2.05459C19.6272 2.16778 19.7013 2.29928 19.7475 2.44142C19.7937 2.58355 19.8111 2.73348 19.7988 2.88242C19.7864 3.03137 19.7445 3.17636 19.6754 3.30893C19.6064 3.44149 19.5116 3.55897 19.3967 3.6545C19.2817 3.75003 19.1489 3.82169 19.0059 3.86531L18.6956 3.96656L18.8831 4.23094C18.9748 4.35009 19.0417 4.48642 19.0798 4.63187C19.118 4.77732 19.1265 4.92893 19.1051 5.07775C19.0836 5.22657 19.0325 5.36957 18.9548 5.49831C18.8771 5.62705 18.7744 5.73891 18.6528 5.82728C18.5311 5.91565 18.393 5.97874 18.2466 6.01281C18.1001 6.04689 17.9483 6.05126 17.8002 6.02568C17.652 6.00009 17.5105 5.94506 17.3839 5.86384C17.2574 5.78262 17.1484 5.67686 17.0634 5.55281L16.875 5.28938L16.6875 5.55281C16.6025 5.67686 16.4936 5.78262 16.367 5.86384C16.2405 5.94506 16.099 6.00009 15.9508 6.02568C15.8026 6.05126 15.6508 6.04689 15.5044 6.01281C15.3579 5.97874 15.2198 5.91565 15.0982 5.82728C14.9765 5.73891 14.8738 5.62705 14.7961 5.49831C14.7184 5.36957 14.6674 5.22657 14.6459 5.07775C14.6244 4.92893 14.633 4.77732 14.6711 4.63187C14.7092 4.48642 14.7761 4.35009 14.8678 4.23094L15.0553 3.96656L14.745 3.86531C14.6045 3.81971 14.4743 3.74687 14.3619 3.65095C14.2495 3.55503 14.1571 3.43791 14.09 3.30628C14.0229 3.17465 13.9823 3.03109 13.9707 2.88379C13.9591 2.73649 13.9766 2.58835 14.0222 2.44781ZM20.25 10.125C20.25 12.1275 19.6562 14.0851 18.5436 15.7501C17.4311 17.4152 15.8498 18.7129 13.9997 19.4793C12.1496 20.2456 10.1138 20.4461 8.14971 20.0555C6.18566 19.6648 4.38156 18.7005 2.96555 17.2845C1.54954 15.8685 0.585229 14.0643 0.194554 12.1003C-0.196122 10.1362 0.00438702 8.10043 0.770724 6.25033C1.53706 4.40023 2.83481 2.81892 4.49986 1.70637C6.1649 0.593821 8.12247 2.30351e-07 10.125 2.30351e-07C10.6904 -0.000119715 11.2548 0.0466026 11.8125 0.139688C12.1068 0.189416 12.3692 0.354004 12.5421 0.597245C12.7151 0.840485 12.7843 1.14245 12.7345 1.43672C12.6848 1.73099 12.5202 1.99344 12.277 2.16636C12.0337 2.33927 11.7318 2.40848 11.4375 2.35875C11.0038 2.28635 10.5648 2.24997 10.125 2.25C8.64667 2.249 7.19795 2.66444 5.94481 3.44873C4.69167 4.23301 3.68479 5.35443 3.03952 6.6845C2.39425 8.01457 2.13668 9.49951 2.29633 10.9692C2.45598 12.4389 3.02638 13.8339 3.94219 14.9944C4.67137 14.0669 5.60079 13.3164 6.66094 12.7987C5.9853 12.1146 5.52708 11.2458 5.34393 10.3019C5.16079 9.35788 5.2609 8.38083 5.63167 7.49361C6.00244 6.6064 6.6273 5.84864 7.42766 5.31568C8.22802 4.78271 9.16812 4.49835 10.1297 4.49835C11.0913 4.49835 12.0314 4.78271 12.8317 5.31568C13.6321 5.84864 14.2569 6.6064 14.6277 7.49361C14.9985 8.38083 15.0986 9.35788 14.9155 10.3019C14.7323 11.2458 14.2741 12.1146 13.5984 12.7987C14.6586 13.3164 15.588 14.0669 16.3172 14.9944C17.411 13.6074 18.004 11.8914 18 10.125C17.9999 9.68525 17.9636 9.24626 17.8913 8.8125C17.8415 8.51823 17.9107 8.21627 18.0836 7.97303C18.2566 7.72979 18.519 7.5652 18.8133 7.51547C19.1076 7.46574 19.4095 7.53495 19.6528 7.70786C19.896 7.88077 20.0606 8.14323 20.1103 8.4375C20.2035 8.99517 20.2502 9.5596 20.25 10.125ZM10.125 12C10.6442 12 11.1517 11.846 11.5834 11.5576C12.0151 11.2692 12.3515 10.8592 12.5502 10.3795C12.7489 9.89989 12.8009 9.37209 12.6996 8.86289C12.5983 8.35369 12.3483 7.88596 11.9812 7.51884C11.614 7.15173 11.1463 6.90172 10.6371 6.80044C10.1279 6.69915 9.60012 6.75114 9.12046 6.94982C8.6408 7.1485 8.23083 7.48495 7.9424 7.91663C7.65396 8.34831 7.5 8.85582 7.5 9.375C7.5 10.0712 7.77657 10.7389 8.26885 11.2312C8.76113 11.7234 9.42881 12 10.125 12ZM10.125 18C11.752 18.0012 13.3389 17.4956 14.6653 16.5534C14.1431 15.8393 13.4597 15.2585 12.6708 14.8581C11.8819 14.4577 11.0097 14.249 10.125 14.249C9.24031 14.249 8.36808 14.4577 7.57918 14.8581C6.79028 15.2585 6.10695 15.8393 5.58469 16.5534C6.91111 17.4956 8.49804 18.0012 10.125 18Z" fill="#1E2939"/>
</svg>
